<?xml version="1.0" encoding="utf-8"?>
<!-- Generator: Adobe Illustrator 15.1.0, SVG Export Plug-In . SVG Version: 6.00 Build 0)  -->
<!DOCTYPE svg PUBLIC "-//W3C//DTD SVG 1.1//EN" "http://www.w3.org/Graphics/SVG/1.1/DTD/svg11.dtd">
<svg version="1.1" id="Layer_1" xmlns="http://www.w3.org/2000/svg" xmlns:xlink="http://www.w3.org/1999/xlink" x="0px" y="0px"
	 width="1398px" height="1398px" viewBox="-58.056 -346.549 1398 1398" enable-background="new -58.056 -346.549 1398 1398"
	 xml:space="preserve">
<path fill="#7EBB41" d="M879.543,248.75C879.533,136.508,803.26,40.541,694.09,15.371c-0.204-0.047-0.407-0.071-0.611-0.108
	c-13.001-2.986-26.401-4.912-40.107-5.679l0.01-156.362c0-7.368-5.965-13.332-13.334-13.333c-0.979,0.001-1.929,0.115-2.847,0.315
	c-6.093,1.231-10.674,6.609-10.674,13.067l0.008,156.362c-13.282,0.743-26.274,2.586-38.897,5.416
	c-0.605,0.054-1.212,0.134-1.821,0.274c-109.17,25.17-185.443,121.137-185.451,233.378l0.019,75.569
	c-0.009,0.055-0.019,0.111-0.019,0.17c0.001,0.034,0.015,0.063,0.019,0.096l0.075,300.895c0,31.475,5.78,61.351,16.359,88.649
	c11.988,30.957,30.146,58.603,53.045,81.501c43.082,43.083,102.959,69.392,170.1,69.384c134.283,0,239.484-105.202,239.486-239.485
	l0.076-300.993c0.005-0.033,0.019-0.062,0.02-0.096c0-0.059-0.01-0.113-0.02-0.168L879.543,248.75z M639.944,36.21
	c0.903-0.007,1.797-0.109,2.672-0.295c0.059-0.011,0.117-0.018,0.176-0.03c116.002,1.583,209.896,96.438,209.906,212.807
	l0.008,62.374l-199.418-0.01v-22.36c7.396-2.207,12.601-5.962,15.973-9.333c3.954-3.954,6.631-8.415,8.45-12.682
	c2.645-5.973,3.843-12.22,3.847-17.64l0.01-131.917c-0.001-0.248-0.01-0.765-0.05-1.492c-0.626-16.675-11.917-40.152-41.573-40.161
	V36.21z M625.028,117.127c0.005-0.238,0.016-0.485,0.029-0.737c0.171-1.751,0.889-6.498,3.592-9.893
	c2.223-2.499,5.754-4.31,11.314-4.306c1.721,0,3.172,0.154,4.398,0.398c2.635,0.579,4.624,1.685,6.122,3.077
	c3.433,3.482,4.219,9.135,4.377,10.902c0.007,0.173,0.013,0.343,0.017,0.51l0.01,131.917c0,0.075-0.33,7.379-4.477,11.526
	c-0.068,0.068-0.152,0.151-0.245,0.24c-1.432,1.231-3.286,2.207-5.67,2.751c-1.259,0.262-2.76,0.43-4.554,0.43
	c-5.395,0-8.874-1.713-11.106-4.101c-3.52-4.218-3.818-10.727-3.818-10.797L625.028,117.127z M791.481,776.045
	c-17.502,17.641-37.546,31.727-59.392,42.006c-0.333,0.156-0.669,0.307-1.002,0.461c-1.155,0.536-2.313,1.064-3.478,1.579
	c-0.689,0.304-1.384,0.598-2.076,0.894c-0.841,0.361-1.682,0.723-2.527,1.072c-0.906,0.375-1.82,0.736-2.734,1.099
	c-0.664,0.265-1.327,0.532-1.995,0.789c-1.008,0.388-2.022,0.762-3.038,1.135c-0.606,0.223-1.212,0.45-1.821,0.668
	c-1.007,0.359-2.021,0.704-3.034,1.049c-0.65,0.221-1.3,0.446-1.953,0.661c-0.914,0.301-1.834,0.588-2.754,0.877
	c-0.783,0.246-1.565,0.496-2.353,0.732c-0.74,0.224-1.486,0.435-2.229,0.649c-0.994,0.288-1.987,0.577-2.986,0.851
	c-0.488,0.134-0.981,0.259-1.472,0.39c-1.277,0.339-2.557,0.676-3.843,0.992c-0.161,0.04-0.323,0.076-0.484,0.115
	c-16.851,4.1-34.394,6.201-52.365,6.204c-44.742-0.007-85.851-13.152-119.762-35.873c-0.21-0.141-0.417-0.287-0.626-0.43
	c-1.032-0.697-2.058-1.402-3.077-2.117c-9.925-7.01-19.308-14.938-28.055-23.754c-39.531-39.852-61.299-93.337-61.299-150.613
	l0.066-287.724l222.07,0l0.01,0.01l0.02-0.001l203.424-0.008l0.064,287.675C852.781,682.708,831.014,736.193,791.481,776.045z"/>
<g>
	<polygon fill="#7EBB41" points="583.209,-246.549 640.944,-346.549 698.678,-246.549 	"/>
	<polygon fill="#7EBB41" points="698.678,951.451 640.944,1051.451 583.209,951.451 	"/>
</g>
<g>
	<polygon fill="#7EBB41" points="1239.944,294.717 1339.944,352.451 1239.944,410.185 	"/>
	<polygon fill="#7EBB41" points="41.944,410.185 -58.056,352.451 41.944,294.717 	"/>
</g>
</svg>
